<?xml version="1.0" encoding="UTF-8"?><svg id="blumenauitoupavanorte" class="cb-avatar" viewBox="-2 -2 112 112" width="96" height="96" xmlns="http://www.w3.org/2000/svg" role="img" aria-label="Casinha do bairro Itoupava Norte"><title>Itoupava Norte: casinha da Corrida dos Bairros, detalhe: indústria</title><g class="cb-risco" fill="#5a2d0c" opacity=".45"><rect x="2" y="58" width="14" height="4" rx="2"/><rect x="0" y="68" width="20" height="4" rx="2"/><rect x="4" y="78" width="12" height="4" rx="2"/></g><rect x="72" y="16" width="9" height="30" fill="#5a2d0c"/><circle cx="84" cy="10" r="5" fill="#bbb" opacity=".8"/><circle cx="92" cy="4" r="4" fill="#ccc" opacity=".7"/><g class="cb-p1"><rect x="34" y="82" width="8" height="18" rx="4" fill="#5a2d0c" transform="rotate(24 38 82)"/></g><g class="cb-p2"><rect x="60" y="82" width="8" height="18" rx="4" fill="#5a2d0c" transform="rotate(-26 64 82)"/></g><g class="cb-corpo" transform="skewX(-8)"><rect x="22" y="44" width="56" height="40" rx="2" fill="#fff4d6" stroke="#5a2d0c" stroke-opacity=".32" stroke-width="1.6"/><rect x="22" y="26" width="56" height="20" fill="#fff4d6"/><rect x="14" y="22" width="72" height="9" rx="2" fill="#3f6fb5"/><rect x="60" y="10" width="14" height="12" rx="2" fill="#3f6fb5"/><rect x="28" y="32" width="10" height="9" rx="1.5" fill="#cfe3ff"/><rect x="46" y="32" width="10" height="9" rx="1.5" fill="#cfe3ff"/><rect x="41" y="60" width="16" height="24" rx="2" fill="#5a2d0c"/><rect x="26" y="52" width="12" height="12" rx="6" fill="#cfe3ff"/><circle cx="46" cy="50" r="1.6" fill="#5a2d0c"/><circle cx="56" cy="50" r="1.6" fill="#5a2d0c"/><path d="M45 55 q6 4 12 0" fill="none" stroke="#5a2d0c" stroke-width="1.6" stroke-linecap="round"/></g></svg>